{
  "asset": {
    "generator": "Khronos glTF Blender I/O v1.6.16",
    "version": "2.0"
  },
  "scene": 0,
  "scenes": [
    {
      "name": "Scene",
      "nodes": [
        0
      ]
    }
  ],
  "nodes": [
    {
      "mesh": 0,
      "name": "sphere_gltf"
    }
  ],
  "materials": [
    {
      "doubleSided": true,
      "name": "marble_01",
      "normalTexture": {
        "index": 0
      },
      "pbrMetallicRoughness": {
        "baseColorTexture": {
          "index": 1
        },
        "metallicFactor": 0,
        "metallicRoughnessTexture": {
          "index": 2
        }
      }
    }
  ],
  "meshes": [
    {
      "name": "Sphere.001",
      "primitives": [
        {
          "attributes": {
            "POSITION": 0,
            "NORMAL": 1,
            "TEXCOORD_0": 2
          },
          "indices": 3,
          "material": 0
        }
      ]
    }
  ],
  "textures": [
    {
      "sampler": 0,
      "source": 0
    },
    {
      "sampler": 0,
      "source": 1
    },
    {
      "sampler": 0,
      "source": 2
    }
  ],
  "images": [
    {
      "mimeType": "image/jpeg",
      "name": "marble_01_nor_gl_4k",
      "uri": "textures/marble_01_nor_gl_4k.jpg"
    },
    {
      "mimeType": "image/jpeg",
      "name": "marble_01_diff_4k",
      "uri": "textures/marble_01_diff_4k.jpg"
    },
    {
      "mimeType": "image/jpeg",
      "name": "marble_01_rough_4k",
      "uri": "textures/marble_01_rough_4k.jpg"
    }
  ],
  "accessors": [
    {
      "bufferView": 0,
      "componentType": 5126,
      "count": 53899,
      "max": [
        0.7524100542068481,
        0.7521675825119019,
        0.7533562183380127
      ],
      "min": [
        -0.752411425113678,
        -0.7505671977996826,
        -0.7533561587333679
      ],
      "type": "VEC3"
    },
    {
      "bufferView": 1,
      "componentType": 5126,
      "count": 53899,
      "type": "VEC3"
    },
    {
      "bufferView": 2,
      "componentType": 5126,
      "count": 53899,
      "type": "VEC2"
    },
    {
      "bufferView": 3,
      "componentType": 5123,
      "count": 322170,
      "type": "SCALAR"
    }
  ],
  "bufferViews": [
    {
      "buffer": 0,
      "byteLength": 646788,
      "byteOffset": 0
    },
    {
      "buffer": 0,
      "byteLength": 646788,
      "byteOffset": 646788
    },
    {
      "buffer": 0,
      "byteLength": 431192,
      "byteOffset": 1293576
    },
    {
      "buffer": 0,
      "byteLength": 644340,
      "byteOffset": 1724768
    }
  ],
  "samplers": [
    {
      "magFilter": 9729,
      "minFilter": 9987
    }
  ],
  "buffers": [
    {
      "byteLength": 2369108,
      "uri": "marble_01.bin"
    }
  ]
}